<svg preserveAspectRatio="none" overflow="visible" style="display: block;" width="24" height="24" viewBox="0 0 24 24" fill="none" xmlns="http://www.w3.org/2000/svg">
<g id="coffee-02">
<path id="Vector" d="M18.2504 10.5H19.6402C21.4917 10.5 22.042 10.7655 21.9974 12.0838C21.9236 14.2674 20.9389 16.8047 16.9999 17.5" stroke="#848484" stroke-width="1.875" stroke-linecap="round"/>
<path id="Vector_2" d="M5.94615 20.6145C2.57173 18.02 2.07456 14.3401 2.00131 10.5001C1.96967 8.84128 2.45114 8.49998 4.65907 8.49998H15.3407C17.5486 8.49998 18.0301 8.84128 17.9985 10.5001C17.9252 14.3401 17.428 18.02 14.0536 20.6145C13.0933 21.3528 12.283 21.5 10.9193 21.5H9.08052C7.71674 21.5 6.90646 21.3528 5.94615 20.6145Z" fill="#848484" stroke="#848484" stroke-width="1.875" stroke-linecap="round"/>
<path id="Vector_3" d="M11.309 2.49998C10.7623 2.83859 10.0013 3.99998 10.0013 5.49998M7.53983 3.99998C7.53983 3.99998 7.00012 4.49998 7.00012 5.49998M14.0013 3.99998C13.728 4.16928 13.5001 4.99998 13.5001 5.49998" stroke="#848484" stroke-width="1.875" stroke-linecap="round" stroke-linejoin="round"/>
</g>
</svg>
